<?xml version="1.0" encoding="utf-8"?>
<!-- Generator: Adobe Illustrator 24.3.0, SVG Export Plug-In . SVG Version: 6.00 Build 0)  -->
<svg version="1.1" id="Layer_1" xmlns="http://www.w3.org/2000/svg" xmlns:xlink="http://www.w3.org/1999/xlink" x="0px" y="0px"
	 viewBox="0 0 53.9 17.9" style="enable-background:new 0 0 53.9 17.9;" xml:space="preserve">
<style type="text/css">
	.st0{fill:#FFFFFF;stroke:#000000;stroke-miterlimit:10;}
	.st1{fill:url(#SVGID_1_);}
</style>
<polygon class="st0" points="-111.9,2.1 -111.9,16.1 -104.4,16.1 -95.8,2.1 -102.1,2.1 -107,10.9 -107,2.1 "/>
<polygon class="st0" points="-96.3,16.1 -87.4,2.1 -93.7,2.1 -102.3,16.1 "/>
<polygon class="st0" points="-88.3,16.1 -79.5,2.1 -85.7,2.1 -94.4,16.1 "/>
<polygon class="st0" points="-71.9,2.1 -77.7,2.1 -86.4,16.1 -80.3,16.1 -74.9,7.5 -69.6,16.1 -62.1,16.1 -62.1,2.1 -66.9,2.1 
	-66.9,10.9 "/>
<g>
	<linearGradient id="SVGID_1_" gradientUnits="userSpaceOnUse" x1="14.9135" y1="15.3617" x2="60.8778" y2="-6.4954">
		<stop  offset="0" style="stop-color:#662D91"/>
		<stop  offset="1" style="stop-color:#EC008C"/>
	</linearGradient>
	<path class="st1" d="M27.1,5.2l1.8-2.9h6.3l-1.8,2.9L27.1,5.2z M32.9,5.9 M26.6,5.9l-6.5,10.5h6.1l6.6-10.5L26.6,5.9z M26.6,5.9
		 M42.8,2.3h-5.9l-8.7,14h6.1l5.5-8.7l5.3,8.7h7.5v-14h-4.9l0,8.8L42.8,2.3z M18.3,16.3l8.9-14h-6.3l-5.4,8.8l-1-1.8l4.3-7h-6.3
		l-5,8.8l0-8.8H2.6v14h7.5l1.1-1.8l1,1.8l0,0L18.3,16.3L18.3,16.3L18.3,16.3L18.3,16.3z"/>
</g>
</svg>
